<?xml version="1.0" encoding="utf-8"?>
<!-- Generator: Adobe Illustrator 22.0.1, SVG Export Plug-In . SVG Version: 6.00 Build 0)  -->
<svg version="1.1" xmlns="http://www.w3.org/2000/svg" xmlns:xlink="http://www.w3.org/1999/xlink" x="0px" y="0px"
	 viewBox="0 0 1530 174" style="enable-background:new 0 0 1530 174;" xml:space="preserve">
<style type="text/css">
	.st0{fill:#AFBFC6;}
	.st1{opacity:0.9;}
	.st2{opacity:0.49;fill:#F79469;}
</style>
<g id="Layer_1">
	<g>
		<path class="st0" d="M212.8,145.8V35.8h17.4c7.7,0,13.9,0.6,18.5,1.7c4.6,1.1,8.6,3.1,11.8,5.8c3.2,2.8,5.8,6.3,7.7,10.5
			c1.9,4.2,2.9,8.5,2.9,12.8c0,7.9-3.2,14.6-9.5,20c6.1,2,11,5.5,14.5,10.5c3.6,4.9,5.4,10.7,5.4,17.3c0,8.6-3.2,15.9-9.6,21.8
			c-3.8,3.7-8.2,6.2-12.9,7.6c-5.2,1.4-11.8,2.1-19.7,2.1H212.8z M230.3,83h5.5c6.5,0,11.2-1.4,14.3-4.1c3-2.7,4.5-6.8,4.5-12.1
			c0-5.2-1.5-9.1-4.6-11.8c-3.1-2.7-7.6-4-13.5-4h-6.1V83z M230.3,130.2h10.8c7.9,0,13.7-1.5,17.4-4.4c3.9-3.2,5.8-7.2,5.8-12.1
			c0-4.8-1.9-8.7-5.6-12c-3.6-3.2-10.2-4.8-19.5-4.8h-8.8V130.2z"/>
		<path class="st0" d="M345,76.4h16.9v69.4H345v-7.3c-6.9,6.2-14.4,9.3-22.4,9.3c-10.1,0-18.4-3.5-25-10.4
			c-6.5-7.1-9.8-15.9-9.8-26.5c0-10.4,3.3-19.1,9.8-26c6.5-6.9,14.7-10.4,24.6-10.4c8.5,0,16.1,3.3,22.8,10V76.4z M305,110.9
			c0,6.7,1.9,12.1,5.6,16.3c3.8,4.2,8.7,6.3,14.5,6.3c6.2,0,11.3-2,15.1-6.1c3.8-4.2,5.8-9.6,5.8-16.1c0-6.5-1.9-11.9-5.8-16.1
			c-3.8-4.1-8.8-6.2-15-6.2c-5.8,0-10.6,2.1-14.5,6.3C306.9,99.4,305,104.7,305,110.9z"/>
		<path class="st0" d="M391.5,91.4v54.5h-16.8V91.4h-7.2v-15h7.2V50.9h16.8v25.5h13.1v15H391.5z"/>
		<path class="st0" d="M424.3,91.4v54.5h-16.8V91.4h-7.2v-15h7.2V50.9h16.8v25.5h13.1v15H424.3z"/>
		<path class="st0" d="M456.7,25.4v120.4h-16.8V25.4H456.7z"/>
		<path class="st0" d="M535.4,114.9h-52.2c0.4,5.7,2.4,10.2,5.8,13.6c3.4,3.3,7.9,5,13.2,5c4.2,0,7.7-1,10.4-2.9
			c2.7-1.9,5.8-5.4,9.2-10.6l14.2,7.6c-2.2,3.6-4.5,6.6-7,9.2c-2.4,2.5-5.1,4.6-7.9,6.3c-2.8,1.6-5.8,2.8-9.1,3.6
			c-3.2,0.8-6.8,1.1-10.6,1.1c-10.9,0-19.6-3.3-26.2-10c-6.6-6.7-9.9-15.6-9.9-26.7c0-11,3.2-19.9,9.6-26.7
			c6.4-6.7,15-10.1,25.6-10.1c10.7,0,19.2,3.3,25.5,9.8c6.2,6.5,9.3,15.4,9.3,26.9L535.4,114.9z M518.1,101.8
			c-2.3-8.6-8-12.8-17-12.8c-2,0-4,0.3-5.8,0.9c-1.8,0.6-3.4,1.5-4.9,2.6c-1.5,1.1-2.7,2.5-3.8,4c-1,1.6-1.8,3.4-2.4,5.3H518.1z"/>
		<path class="st0" d="M579.6,110.6c0-10,3.8-18.6,11.3-25.6c7.5-7,16.7-10.6,27.5-10.6c10.9,0,20.1,3.5,27.7,10.6
			c7.5,7.1,11.2,15.8,11.2,26.1c0,10.4-3.8,19.1-11.3,26.2c-7.6,7-16.9,10.5-27.9,10.5c-10.9,0-20.1-3.6-27.5-10.7
			C583.3,130.1,579.6,121.3,579.6,110.6z M596.8,110.9c0,6.9,1.9,12.4,5.8,16.5c4,4.1,9.3,6.1,15.8,6.1c6.6,0,11.9-2,15.8-6.1
			c3.9-4,5.9-9.4,5.9-16.2c0-6.7-2-12.1-5.9-16.2c-4-4.1-9.3-6.1-15.8-6.1c-6.4,0-11.7,2-15.6,6.1
			C598.8,99.2,596.8,104.4,596.8,110.9z"/>
		<path class="st0" d="M683.6,91.4v54.5h-16.9V91.4h-6v-15h6V49.6c0-8.7,1.6-14.9,4.8-18.5c4.4-5,10.8-7.6,19.2-7.6
			c3,0,6.8,0.8,11.3,2.5v16.4l-1.7-0.9c-3.6-1.8-6.6-2.6-9-2.6c-3,0-5,1-6.1,3.1c-1,2-1.6,5.8-1.6,11.5v22.9h18.3v15H683.6z"/>
		<path class="st0" d="M758.2,91.4v54.5h-16.8V91.4h-7.2v-15h7.2V50.9h16.8v25.5h13.1v15H758.2z"/>
		<path class="st0" d="M776.8,25.4h16.8v56.7c6-5.1,12.6-7.7,19.8-7.7c8.2,0,14.8,2.5,19.8,7.6c4.2,4.4,6.3,11.5,6.3,21.2v42.6
			h-16.8v-41.1c0-5.6-1-9.6-3.1-12.1c-2.1-2.5-5.4-3.7-10-3.7c-5.9,0-10,1.7-12.4,5.2c-2.3,3.5-3.5,9.6-3.5,18.1v33.6h-16.8V25.4z"
			/>
		<path class="st0" d="M918.2,114.9h-52.2c0.4,5.7,2.4,10.2,5.8,13.6c3.4,3.3,7.9,5,13.2,5c4.2,0,7.7-1,10.4-2.9
			c2.7-1.9,5.8-5.4,9.2-10.6l14.2,7.6c-2.2,3.6-4.5,6.6-7,9.2c-2.4,2.5-5.1,4.6-7.9,6.3c-2.8,1.6-5.8,2.8-9.1,3.6
			c-3.2,0.8-6.8,1.1-10.6,1.1c-10.9,0-19.6-3.3-26.2-10c-6.6-6.7-9.9-15.6-9.9-26.7c0-11,3.2-19.9,9.6-26.7
			c6.4-6.7,15-10.1,25.6-10.1c10.7,0,19.2,3.3,25.5,9.8c6.2,6.5,9.3,15.4,9.3,26.9L918.2,114.9z M900.9,101.8
			c-2.3-8.6-8-12.8-17-12.8c-2,0-4,0.3-5.8,0.9c-1.8,0.6-3.4,1.5-4.9,2.6c-1.5,1.1-2.7,2.5-3.8,4s-1.8,3.4-2.4,5.3H900.9z"/>
		<path class="st0" d="M986.5,101.1v44.7H969V35.8h19.8c9.7,0,17,0.6,21.9,1.9c5,1.3,9.4,3.7,13.2,7.3c6.6,6.2,10,14,10,23.4
			c0,10.1-3.5,18.1-10.6,24c-7.1,5.9-16.6,8.8-28.7,8.8H986.5z M986.5,85.7h6.5c16,0,24-5.9,24-17.6c0-11.4-8.3-17-24.8-17h-5.8
			V85.7z"/>
		<path class="st0" d="M1056.4,25.4v120.4h-16.8V25.4H1056.4z"/>
		<path class="st0" d="M1122.4,76.4h16.9v69.4h-16.9v-7.3c-6.9,6.2-14.4,9.3-22.4,9.3c-10.1,0-18.4-3.5-25-10.4
			c-6.5-7.1-9.8-15.9-9.8-26.5c0-10.4,3.3-19.1,9.8-26c6.5-6.9,14.7-10.4,24.6-10.4c8.5,0,16.1,3.3,22.8,10V76.4z M1082.5,110.9
			c0,6.7,1.9,12.1,5.6,16.3c3.8,4.2,8.7,6.3,14.5,6.3c6.2,0,11.3-2,15.1-6.1c3.8-4.2,5.8-9.6,5.8-16.1c0-6.5-1.9-11.9-5.8-16.1
			c-3.8-4.1-8.8-6.2-15-6.2c-5.8,0-10.6,2.1-14.5,6.3C1084.4,99.4,1082.5,104.7,1082.5,110.9z"/>
		<path class="st0" d="M1168.9,91.4v54.5h-16.8V91.4h-7.2v-15h7.2V50.9h16.8v25.5h13.1v15H1168.9z"/>
		<path class="st0" d="M1201.9,91.4v54.5H1185V91.4h-6v-15h6V49.6c0-8.7,1.6-14.9,4.8-18.5c4.4-5,10.8-7.6,19.2-7.6
			c3,0,6.8,0.8,11.3,2.5v16.4l-1.7-0.9c-3.6-1.8-6.6-2.6-9-2.6c-3,0-5,1-6.1,3.1c-1,2-1.6,5.8-1.6,11.5v22.9h18.3v15H1201.9z"/>
		<path class="st0" d="M1219.3,110.6c0-10,3.8-18.6,11.3-25.6c7.5-7,16.7-10.6,27.5-10.6c10.9,0,20.1,3.5,27.7,10.6
			c7.5,7.1,11.2,15.8,11.2,26.1c0,10.4-3.8,19.1-11.3,26.2c-7.6,7-16.9,10.5-27.9,10.5c-10.9,0-20.1-3.6-27.5-10.7
			C1223,130.1,1219.3,121.3,1219.3,110.6z M1236.6,110.9c0,6.9,1.9,12.4,5.8,16.5c4,4.1,9.3,6.1,15.8,6.1c6.6,0,11.9-2,15.8-6.1
			c3.9-4,5.9-9.4,5.9-16.2c0-6.7-2-12.1-5.9-16.2c-4-4.1-9.3-6.1-15.8-6.1c-6.4,0-11.7,2-15.6,6.1
			C1238.6,99.2,1236.6,104.4,1236.6,110.9z"/>
		<path class="st0" d="M1305.9,76.4h16.8v6.2c3.1-3.1,5.8-5.2,8.2-6.3c2.4-1.2,5.3-1.8,8.7-1.8c4.4,0,9.1,1.4,13.9,4.1l-7.7,14.7
			c-3.2-2.2-6.3-3.3-9.4-3.3c-9.2,0-13.8,6.6-13.8,19.8v36h-16.8V76.4z"/>
		<path class="st0" d="M1356.5,76.4h16.8v6.4c3.2-3.2,6-5.4,8.3-6.6c2.4-1.2,5.5-1.8,9.2-1.8c8.2,0,14.7,3.4,19.5,10.3
			c5.3-6.8,12.5-10.3,21.5-10.3c16.4,0,24.6,9.5,24.6,28.4v42.9h-16.9v-38.6c0-6.7-0.8-11.4-2.5-14.1c-1.7-2.8-4.6-4.2-8.6-4.2
			c-4.6,0-8,1.7-10.1,5c-2.1,3.3-3.2,8.7-3.2,16v35.9h-16.9v-38.4c0-12.4-3.7-18.5-11.2-18.5c-4.7,0-8.2,1.7-10.4,5.1
			c-2.2,3.4-3.3,8.7-3.3,16v35.9h-16.8V76.4z"/>
		<path class="st0" d="M1511.1,88.2l-13.9,7.1c-2.2-4.3-4.9-6.4-8.2-6.4c-1.5,0-2.9,0.5-4,1.5c-1.1,1-1.6,2.2-1.6,3.7
			c0,2.7,3.2,5.3,9.7,7.9c8.9,3.7,14.9,7,18,10.1c3.1,3.1,4.6,7.2,4.6,12.5c0,6.7-2.6,12.3-7.8,16.8c-5,4.3-11.1,6.4-18.3,6.4
			c-12.2,0-20.9-5.7-26-17l14.4-6.3c2,3.3,3.5,5.4,4.6,6.3c2,1.8,4.5,2.7,7.3,2.7c5.7,0,8.5-2.5,8.5-7.4c0-2.9-2.2-5.5-6.6-8
			c-1.7-0.8-3.4-1.6-5.1-2.4c-1.7-0.8-3.4-1.5-5.2-2.4c-4.9-2.3-8.3-4.6-10.3-6.8c-2.5-2.9-3.8-6.6-3.8-11.2c0-6,2.2-11,6.5-15
			c4.4-3.9,9.8-5.9,16.2-5.9C1499.6,74.5,1506.5,79.1,1511.1,88.2z"/>
	</g>
	<g class="st1">
		<circle class="st2" cx="113.4" cy="107.7" r="62.3"/>
		<circle class="st2" cx="70.6" cy="63.7" r="62.3"/>
		<circle class="st2" cx="114" cy="64.2" r="62.3"/>
		<circle class="st2" cx="70" cy="107.1" r="62.3"/>
	</g>
</g>
<g id="Layer_2">
</g>
</svg>
